<?xml version="1.0" encoding="UTF-8" standalone="no"?>
<!-- Created with Inkscape (http://www.inkscape.org/) -->

<svg
   width="128"
   height="128"
   viewBox="0 0 33.866666 33.866666"
   version="1.1"
   id="svg1767"
   xml:space="preserve"
   inkscape:version="1.2.2 (732a01da63, 2022-12-09)"
   sodipodi:docname="logo.svg"
   xmlns:inkscape="http://www.inkscape.org/namespaces/inkscape"
   xmlns:sodipodi="http://sodipodi.sourceforge.net/DTD/sodipodi-0.dtd"
   xmlns="http://www.w3.org/2000/svg"
   xmlns:svg="http://www.w3.org/2000/svg"><sodipodi:namedview
     id="namedview1769"
     pagecolor="#ffffff"
     bordercolor="#666666"
     borderopacity="1.0"
     inkscape:showpageshadow="2"
     inkscape:pageopacity="0.0"
     inkscape:pagecheckerboard="0"
     inkscape:deskcolor="#d1d1d1"
     inkscape:document-units="px"
     showgrid="false"
     inkscape:zoom="2.6119809"
     inkscape:cx="40.00795"
     inkscape:cy="56.279125"
     inkscape:window-width="1920"
     inkscape:window-height="1017"
     inkscape:window-x="2992"
     inkscape:window-y="436"
     inkscape:window-maximized="1"
     inkscape:current-layer="layer1" /><defs
     id="defs1764" /><g
     inkscape:label="Layer 1"
     inkscape:groupmode="layer"
     id="layer1"><rect
       style="fill:#d0d0d0;fill-opacity:1;stroke-width:1.10638;stroke-linecap:square;stroke-linejoin:bevel;stroke-miterlimit:2;paint-order:stroke fill markers"
       id="rect6631"
       width="32.641674"
       height="32.641674"
       x="0.61249703"
       y="0.61249709"
       ry="3.0957484" /><rect
       style="fill:#0a0a0a;fill-opacity:1;stroke-width:0.999409;stroke-linecap:square;stroke-linejoin:bevel;stroke-miterlimit:2;paint-order:stroke fill markers"
       id="rect10916"
       width="29.485727"
       height="29.485727"
       x="2.1904695"
       y="2.1904697"
       ry="2.4019442" /><text
       xml:space="preserve"
       style="font-style:normal;font-variant:normal;font-weight:bold;font-stretch:normal;font-size:7.96545px;line-height:1.25;font-family:Consolas;-inkscape-font-specification:'Consolas, Bold';font-variant-ligatures:normal;font-variant-caps:normal;font-variant-numeric:normal;font-variant-east-asian:normal;fill:#2296c3;fill-opacity:1;stroke:none;stroke-width:0.199137"
       x="-36.751568"
       y="11.407957"
       id="text5974"><tspan
         sodipodi:role="line"
         id="tspan5972"
         style="font-style:normal;font-variant:normal;font-weight:bold;font-stretch:normal;font-size:7.96545px;font-family:Consolas;-inkscape-font-specification:'Consolas, Bold';font-variant-ligatures:normal;font-variant-caps:normal;font-variant-numeric:normal;font-variant-east-asian:normal;fill:#2296c3;fill-opacity:1;stroke-width:0.199137"
         x="-36.751568"
         y="11.407957">[KIND]</tspan></text><text
       xml:space="preserve"
       style="font-style:normal;font-variant:normal;font-weight:bold;font-stretch:normal;font-size:7.96545px;line-height:1.25;font-family:Consolas;-inkscape-font-specification:'Consolas, Bold';font-variant-ligatures:normal;font-variant-caps:normal;font-variant-numeric:normal;font-variant-east-asian:normal;fill:#2c72cc;fill-opacity:1;stroke:none;stroke-width:0.199137"
       x="-36.751568"
       y="20.157406"
       id="text5978"><tspan
         sodipodi:role="line"
         id="tspan5976"
         style="font-style:normal;font-variant:normal;font-weight:bold;font-stretch:normal;font-size:7.96545px;font-family:Consolas;-inkscape-font-specification:'Consolas, Bold';font-variant-ligatures:normal;font-variant-caps:normal;font-variant-numeric:normal;font-variant-east-asian:normal;fill:#2c72cc;fill-opacity:1;stroke-width:0.199137"
         x="-36.751568"
         y="20.157406">[LOGS]</tspan></text><g
       aria-label="[ KIND ]"
       id="text6177"
       style="font-weight:bold;font-size:9.67426px;line-height:1.25;font-family:Consolas;-inkscape-font-specification:'Consolas, Bold';letter-spacing:-0.0867629px;word-spacing:-6.46543px;fill:#22c38d;stroke-width:0.241857;fill-opacity:1"
       transform="translate(-0.25593249,1.5875)"><path
         d="M 4.2012403,18.260421 V 9.4978461 H 6.6859379 V 10.39536 H 5.2640862 v 6.967546 h 1.4218517 v 0.897515 z"
         id="path6216"
         style="fill:#22c38d;fill-opacity:1" /><path
         d="M 10.406188,16.385088 8.5497499,13.399672 v 2.985416 H 7.36881 v -6.173954 h 1.1809399 v 2.810637 L 10.39674,10.211134 h 1.402957 l -2.0973497,2.942902 2.2059957,3.231052 z"
         id="path6218"
         style="fill:#22c38d;fill-opacity:1" /><path
         d="m 12.7002,11.16061 v -0.949476 h 3.901825 v 0.949476 h -1.360443 v 4.265555 h 1.360443 v 0.958923 H 12.7002 v -0.958923 h 1.360442 V 11.16061 Z"
         id="path6220"
         style="fill:#22c38d;fill-opacity:1" /><path
         d="m 20.719409,16.385088 -1.653316,-3.684533 -0.340111,-0.793591 v 2.560277 1.917847 H 17.66786 v -6.173954 h 1.426576 l 1.686382,3.708151 0.297597,0.722736 v -2.72561 -1.705277 h 1.058122 v 6.173954 z"
         id="path6222"
         style="fill:#22c38d;fill-opacity:1" /><path
         d="m 27.524612,13.220169 q 0,0.718011 -0.179503,1.303758 -0.174779,0.585746 -0.55268,1.001437 -0.373177,0.410967 -0.958923,0.637707 -0.585746,0.222017 -1.402957,0.222017 h -1.568288 v -6.173954 h 1.828095 q 0.708564,0 1.237625,0.179503 0.533785,0.174779 0.888067,0.543232 0.354282,0.368453 0.529061,0.935305 0.179503,0.566851 0.179503,1.350995 z m -1.247073,0.07558 q 0,-0.500719 -0.0803,-0.892791 -0.0803,-0.392072 -0.273979,-0.661326 -0.18895,-0.273978 -0.510166,-0.415691 -0.321215,-0.141713 -0.798315,-0.141713 h -0.59047 v 4.227765 h 0.510166 q 0.855001,0 1.299034,-0.510166 0.444033,-0.510166 0.444033,-1.606078 z"
         id="path6224"
         style="fill:#22c38d;fill-opacity:1" /><path
         d="m 27.702041,18.260421 v -0.897515 h 1.412404 V 10.39536 H 27.702041 V 9.4978461 h 2.47525 v 8.7625749 z"
         id="path6226"
         style="fill:#22c38d;fill-opacity:1" /></g><g
       aria-label="[ LOGS ]"
       id="text6206"
       style="font-weight:bold;font-size:9.67426px;line-height:1.25;font-family:Consolas;-inkscape-font-specification:'Consolas, Bold';letter-spacing:-0.0867629px;word-spacing:-6.46544px;fill:#2c72cc;stroke-width:0.241857"
       transform="translate(-0.25592199)"><path
         d="m 4.2012403,29.569531 v -8.762574 h 2.4846976 v 0.897514 H 5.2640862 v 6.967546 h 1.4218517 v 0.897514 z"
         id="path6229" /><path
         d="m 7.6900156,27.694199 v -6.173954 h 1.18094 v 5.17724 h 2.6075154 v 0.996714 z"
         id="path6231" /><path
         d="m 17.1358,24.581241 q 0,0.840829 -0.198397,1.450194 -0.193675,0.609365 -0.538509,1.001437 -0.340111,0.392072 -0.803039,0.581023 -0.458205,0.18895 -0.982542,0.18895 -1.21873,0 -1.832819,-0.807763 -0.614089,-0.812487 -0.614089,-2.357156 0,-0.840829 0.193674,-1.450194 0.198398,-0.609365 0.538509,-1.001437 0.344834,-0.392072 0.803039,-0.581023 0.462929,-0.18895 0.987266,-0.18895 1.21873,0 1.832819,0.807763 0.614088,0.807763 0.614088,2.357156 z m -1.228177,0.05669 q 0,-1.095912 -0.292873,-1.634421 -0.292873,-0.538509 -0.963647,-0.538509 -0.335387,0 -0.571575,0.141713 -0.236188,0.136989 -0.392072,0.406244 -0.151161,0.269254 -0.222017,0.66605 -0.07086,0.392072 -0.07086,0.902238 0,1.095912 0.292873,1.634421 0.297597,0.538508 0.963647,0.538508 0.335387,0 0.571575,-0.136989 0.240912,-0.141712 0.392072,-0.410967 0.15116,-0.269254 0.222017,-0.661326 0.07086,-0.396796 0.07086,-0.906962 z"
         id="path6233" /><path
         d="m 19.911636,25.081959 v -0.958923 h 2.196548 v 3.292461 q -0.425139,0.198398 -0.888067,0.292873 -0.462928,0.09448 -1.006161,0.09448 -0.642431,0 -1.157321,-0.198398 -0.510166,-0.198398 -0.869172,-0.59047 -0.359006,-0.392072 -0.55268,-0.973094 -0.18895,-0.581023 -0.18895,-1.346272 0,-0.769973 0.198398,-1.379338 0.203121,-0.609365 0.585746,-1.029779 0.387348,-0.425139 0.944752,-0.647155 0.562127,-0.222017 1.280139,-0.222017 0.425138,0 0.826658,0.07558 0.406243,0.07086 0.807763,0.193674 v 1.147874 q -0.349558,-0.165332 -0.774697,-0.269255 -0.420414,-0.108646 -0.850277,-0.108646 -0.434586,0 -0.769972,0.15116 -0.330664,0.151161 -0.557404,0.429862 -0.222017,0.278702 -0.340111,0.684946 -0.11337,0.406243 -0.11337,0.916409 0,0.491271 0.08975,0.888067 0.08975,0.392072 0.28815,0.670774 0.203121,0.273978 0.519613,0.420414 0.316492,0.146437 0.769973,0.146437 0.108647,0 0.188951,-0.0047 0.0803,-0.0094 0.15116,-0.02362 0.07086,-0.01417 0.132265,-0.03307 0.06613,-0.0189 0.136989,-0.04251 v -1.577736 z"
         id="path6235" /><path
         d="m 27.274241,25.828313 q 0,0.505443 -0.18895,0.87862 -0.184227,0.373177 -0.519614,0.618812 -0.335387,0.240912 -0.798315,0.359006 -0.462929,0.118094 -1.010885,0.118094 -0.486547,0 -0.940028,-0.05669 -0.453481,-0.05668 -0.897514,-0.18895 v -1.147874 q 0.217293,0.07558 0.453481,0.141713 0.236188,0.06613 0.472376,0.118094 0.240911,0.04724 0.477099,0.07558 0.236188,0.02834 0.458205,0.02834 0.330663,0 0.562128,-0.05668 0.231464,-0.05669 0.3779,-0.155884 0.146437,-0.0992 0.21257,-0.236188 0.06613,-0.136989 0.06613,-0.30232 0,-0.226741 -0.132265,-0.377901 -0.127542,-0.155884 -0.340111,-0.273978 -0.212569,-0.118094 -0.486547,-0.212569 -0.269254,-0.09448 -0.55268,-0.203122 -0.278702,-0.108647 -0.55268,-0.245636 -0.269254,-0.136989 -0.481823,-0.34011 -0.21257,-0.203122 -0.344835,-0.481824 -0.127541,-0.283425 -0.127541,-0.680221 0,-0.36373 0.132265,-0.689669 0.132265,-0.32594 0.415691,-0.566851 0.283425,-0.245636 0.727459,-0.387349 0.444033,-0.146436 1.072293,-0.146436 0.184227,0 0.382625,0.0189 0.203121,0.01417 0.396796,0.04251 0.198398,0.02362 0.3779,0.06141 0.184227,0.03307 0.335387,0.07086 v 1.062846 q -0.15116,-0.05668 -0.330663,-0.103923 -0.179503,-0.04724 -0.373177,-0.0803 -0.18895,-0.03779 -0.382624,-0.05668 -0.193675,-0.0189 -0.368454,-0.0189 -0.307044,0 -0.519613,0.05196 -0.212569,0.04724 -0.349558,0.13699 -0.136989,0.08503 -0.198398,0.212569 -0.06141,0.127541 -0.06141,0.283425 0,0.193674 0.127541,0.335387 0.132266,0.136989 0.344835,0.25036 0.217293,0.108646 0.486547,0.207845 0.273978,0.09447 0.557404,0.207845 0.288149,0.108647 0.557403,0.25036 0.273978,0.141712 0.486548,0.344834 0.217293,0.203122 0.344834,0.481824 0.132265,0.273978 0.132265,0.651878 z"
         id="path6237" /><path
         d="m 27.70202,29.569531 v -0.897514 h 1.412404 V 21.704471 H 27.70202 v -0.897514 h 2.47525 v 8.762574 z"
         id="path6239" /></g><text
       xml:space="preserve"
       style="font-style:normal;font-variant:normal;font-weight:bold;font-stretch:normal;font-size:9.67426px;line-height:1.25;font-family:Consolas;-inkscape-font-specification:'Consolas, Bold';font-variant-ligatures:normal;font-variant-caps:normal;font-variant-numeric:normal;font-variant-east-asian:normal;letter-spacing:-0.0867629px;word-spacing:-6.46543px;fill:#2296c3;fill-opacity:1;stroke:none;stroke-width:0.241857"
       x="-37.251442"
       y="-11.066139"
       id="text6210"><tspan
         sodipodi:role="line"
         id="tspan6208"
         style="font-style:normal;font-variant:normal;font-weight:bold;font-stretch:normal;font-size:9.67426px;font-family:Consolas;-inkscape-font-specification:'Consolas, Bold';font-variant-ligatures:normal;font-variant-caps:normal;font-variant-numeric:normal;font-variant-east-asian:normal;fill:#2296c3;fill-opacity:1;stroke-width:0.241857"
         x="-37.251442"
         y="-11.066139">[ KIND ]</tspan></text><text
       xml:space="preserve"
       style="font-style:normal;font-variant:normal;font-weight:bold;font-stretch:normal;font-size:9.67426px;line-height:1.25;font-family:Consolas;-inkscape-font-specification:'Consolas, Bold';font-variant-ligatures:normal;font-variant-caps:normal;font-variant-numeric:normal;font-variant-east-asian:normal;letter-spacing:-0.0867629px;word-spacing:-6.46544px;fill:#2c72cc;fill-opacity:1;stroke:none;stroke-width:0.241857"
       x="-37.251442"
       y="0.242971"
       id="text6214"><tspan
         sodipodi:role="line"
         id="tspan6212"
         style="font-style:normal;font-variant:normal;font-weight:bold;font-stretch:normal;font-size:9.67426px;font-family:Consolas;-inkscape-font-specification:'Consolas, Bold';font-variant-ligatures:normal;font-variant-caps:normal;font-variant-numeric:normal;font-variant-east-asian:normal;fill:#2c72cc;fill-opacity:1;stroke-width:0.241857"
         x="-37.251442"
         y="0.242971">[ LOGS ]</tspan></text></g></svg>
